<svg id="Layer_1" height="512" viewBox="0 0 128 128" width="512" xmlns="http://www.w3.org/2000/svg" data-name="Layer 1"><path d="m13.523 34.686h100.953v58h-100.953z" fill="#ffd295"/><path d="m80.932 34.686s4.684 7.125-4.1 13.75-6.713 24.897 11.168 26.75c14.845 1.538 16.833 17.5 16.833 17.5h9.643v-58z" fill="#ffb54c"/><path d="m58.827 39.98h-8.405-1.177-8.405l-11.293 23.042 7.346-4 2.236 4 10.704-21.841 10.705 21.841 2.235-4 7.346 4z" fill="#1cacb4"/><path d="m23.658 26.357c-6.6 3.089-6.6 15.165 0 18.254s18.675-4.911 18.675-4.911v-8.429s-12.075-8.003-18.675-4.914z" fill="#00c7c7"/><path d="m76.009 44.611c6.6-3.089 6.6-15.165 0-18.254s-18.675 4.914-18.675 4.914v8.429s12.075 8 18.675 4.911z" fill="#1cacb4"/><path d="m13.523 75.186h100.953v9.25h-100.953z" fill="#ff6319"/><path d="m84.5 51.935h20.333a1.75 1.75 0 0 0 0-3.5h-20.333a1.75 1.75 0 0 0 0 3.5z" fill="#465a61"/><path d="m104.834 58.435h-20.334a1.75 1.75 0 0 0 0 3.5h20.333a1.75 1.75 0 0 0 0-3.5z" fill="#465a61"/><path d="m42.334 33.734h-12.787a1.75 1.75 0 1 0 0 3.5h12.787a1.75 1.75 0 0 0 0-3.5z" fill="#64e0db"/><path d="m70.119 33.734h-12.785a1.75 1.75 0 0 0 0 3.5h12.785a1.75 1.75 0 0 0 0-3.5z" fill="#00c7c7"/><path d="m104.833 102.352-91.31-9.666h91.31z" fill="#ff8f00"/><path d="m42.333 27.984h15v15h-15z" fill="#64e0db"/><path d="m101.938 84.435h12.538v-9.25h-26.476a17.543 17.543 0 0 1 13.938 9.25z" fill="#ef3801"/><path d="m42.333 27.984s7.5.609 7.5 15h7.5v-15z" fill="#00c7c7"/><g fill="#630000"><path d="m114.477 32.936h-25.81a1.75 1.75 0 0 0 0 3.5h24.06v37h-66.777a1.75 1.75 0 0 0 0 3.5h66.777v14h-97.454v-4.75h91.227a1.75 1.75 0 0 0 0-3.5h-91.227v-5.75h14.274a1.75 1.75 0 0 0 0-3.5h-14.274v-37h1.741c.279 4.46 2.471 8.154 5.9 9.761a10.134 10.134 0 0 0 4.325.876 24.58 24.58 0 0 0 9.295-2.286l-8.56 17.466a1.75 1.75 0 0 0 2.408 2.308l5.826-3.173 1.392 2.488a1.688 1.688 0 0 0 1.575.9 1.75 1.75 0 0 0 1.524-.979l9.133-18.635 9.133 18.635a1.75 1.75 0 0 0 1.524.979 1.7 1.7 0 0 0 1.575-.9l1.392-2.489 5.826 3.173a1.75 1.75 0 0 0 2.408-2.308l-6.921-14.124a1.75 1.75 0 0 0 -3.143 1.541l4.5 9.188-2.516-1.372a1.752 1.752 0 0 0 -2.364.684l-.607 1.085-7.115-14.52h3.81a1.75 1.75 0 0 0 1.75-1.75v-.152c5.792 3.317 10.237 4.146 13.228 4.146a10.843 10.843 0 0 0 4.439-.782c3.675-1.721 5.958-5.825 5.958-10.712s-2.283-8.992-5.963-10.715a8.479 8.479 0 0 0 -.977-.384 1.75 1.75 0 1 0 -1.081 3.328 5.317 5.317 0 0 1 .579.228c2.395 1.121 3.942 4.082 3.942 7.543s-1.547 6.421-3.941 7.542c-4.336 2.026-12.516-2.037-16.184-4.292v-1.5h11.035a1.75 1.75 0 0 0 0-3.5h-11.036v-1.494a46.241 46.241 0 0 1 5.067-2.659 1.75 1.75 0 1 0 -1.422-3.2c-1.381.619-2.628 1.258-3.645 1.819v-.214a1.75 1.75 0 0 0 -1.75-1.75h-15a1.75 1.75 0 0 0 -1.75 1.75v.153c-10.837-6.205-16.958-3.7-17.667-3.366a10.739 10.739 0 0 0 -5.716 8.163h-3.677a1.75 1.75 0 0 0 -1.75 1.75v58a1.744 1.744 0 0 0 1.543 1.729c.008 0 .014.01.023.011l91.31 9.667a1.667 1.667 0 0 0 .184.01 1.75 1.75 0 0 0 1.75-1.75v-7.917h7.893a1.75 1.75 0 0 0 1.75-1.75v-58a1.75 1.75 0 0 0 -1.749-1.75zm-75.45 26.318-.607-1.085a1.75 1.75 0 0 0 -2.364-.684l-2.519 1.372 7.321-14.938a1.745 1.745 0 0 0 1.475.815h3.81zm5.056-29.52h11.5v11.5h-4.883c-.034 0-.068 0-.1 0h-6.517zm-19.683-1.793c4.332-2.03 12.515 2.036 16.184 4.292v1.5h-11.037a1.75 1.75 0 0 0 0 3.5h11.036v1.5c-.29.179-.611.369-.954.566a1.746 1.746 0 0 0 -.173.1c-4.018 2.292-11.113 5.472-15.056 3.627-2.395-1.121-3.942-4.082-3.942-7.543s1.548-6.42 3.942-7.542zm78.684 72.466-56.408-5.971h56.408z"/><path d="m69.145 27.788a1.712 1.712 0 0 0 .376-.041c.294-.064.588-.121.88-.168a1.75 1.75 0 0 0 -.563-3.455q-.531.088-1.066.205a1.75 1.75 0 0 0 .373 3.459z"/><path d="m39.249 73.436h-2a1.75 1.75 0 0 0 0 3.5h2a1.75 1.75 0 0 0 0-3.5z"/><path d="m84.5 51.936h20.333a1.75 1.75 0 0 0 0-3.5h-20.333a1.75 1.75 0 0 0 0 3.5z"/><path d="m84.5 61.936h20.333a1.75 1.75 0 0 0 0-3.5h-20.333a1.75 1.75 0 0 0 0 3.5z"/></g></svg>