<svg id="Layer_1" height="512" viewBox="0 0 128 128" width="512" xmlns="http://www.w3.org/2000/svg" xmlns:xlink="http://www.w3.org/1999/xlink" data-name="Layer 1"><linearGradient id="linear-gradient" gradientUnits="userSpaceOnUse" x1="80.988" x2="47.012" y1="80.988" y2="47.012"><stop offset="0" stop-color="#20c6c5"/><stop offset="1" stop-color="#fb642b"/></linearGradient><path d="m91.175 68.325a1.749 1.749 0 0 1 0 2.475l-.594.594a1.75 1.75 0 0 1 -2.475-2.475l.594-.594a1.749 1.749 0 0 1 2.475 0zm-7.756 5.281-16.012 16.012-2.652-2.652a1.75 1.75 0 0 0 -2.475 2.475l2.652 2.652-20.912 20.907a1.75 1.75 0 1 0 2.475 2.475l22.148-22.144 17.251-17.25a1.75 1.75 0 0 0 -2.475-2.475zm-43.883 32.44a12.555 12.555 0 0 0 -17.582-17.581l-5.722-5.723 19.675-19.675 2.652 2.652a1.75 1.75 0 1 0 2.475-2.475l-2.652-2.652 44.361-44.36 6.874 6.873a1.75 1.75 0 1 0 2.475-2.475l-8.111-8.11a1.749 1.749 0 0 0 -2.475 0l-68.986 68.98a1.749 1.749 0 0 0 0 2.475l8.111 8.111a1.749 1.749 0 0 0 2.475 0 9.054 9.054 0 0 1 12.8 12.8 1.749 1.749 0 0 0 0 2.475l3.235 3.234a1.75 1.75 0 0 0 2.475-2.475zm75.944-62.025-8.111-8.111a1.749 1.749 0 0 0 -2.475 0 9.053 9.053 0 0 1 -15.455-6.4 1.75 1.75 0 0 0 -3.5 0 12.554 12.554 0 0 0 20.106 10.027l5.722 5.723-18.88 18.88a1.75 1.75 0 1 0 2.475 2.475l20.118-20.115a1.749 1.749 0 0 0 0-2.479zm-66.539 27.13a1.75 1.75 0 1 0 -2.475 2.475l7.907 7.907a1.75 1.75 0 0 0 2.475-2.475zm9.228-2.674a1.751 1.751 0 0 1 -1.428-.739l-2.558-3.616-4.43.057a1.707 1.707 0 0 1 -1.582-.955 1.75 1.75 0 0 1 .157-1.842l2.649-3.551-1.422-4.2a1.75 1.75 0 0 1 2.219-2.219l4.2 1.422 3.55-2.648a1.75 1.75 0 0 1 2.8 1.425l-.057 4.43 3.609 2.559a1.75 1.75 0 0 1 -.491 3.1l-4.23 1.315-1.315 4.232a1.749 1.749 0 0 1 -1.671 1.23zm-.083-7.377a1.75 1.75 0 0 1 1.151-1.151l1.723-.535-1.473-1.042a1.748 1.748 0 0 1 -.74-1.451l.023-1.8-1.446 1.079a1.75 1.75 0 0 1 -1.608.255l-1.708-.579.579 1.709a1.749 1.749 0 0 1 -.255 1.608l-1.079 1.446 1.8-.023h.022a1.75 1.75 0 0 1 1.429.739l1.042 1.473zm5.35-14.625a1.743 1.743 0 0 0 1.237-.513l12.44-12.44a1.75 1.75 0 1 0 -2.475-2.475l-12.438 12.44a1.75 1.75 0 0 0 1.237 2.987zm17.815-8.813-12.439 12.438a1.75 1.75 0 1 0 2.475 2.475l12.439-12.439a1.75 1.75 0 0 0 -2.475-2.475zm6.613 6.613-28.572 28.571a1.75 1.75 0 1 0 2.475 2.475l28.572-28.572a1.75 1.75 0 0 0 -2.475-2.475zm-21.958 37.659a1.749 1.749 0 0 0 2.475 0l28.571-28.573a1.75 1.75 0 0 0 -2.475-2.475l-28.571 28.573a1.749 1.749 0 0 0 0 2.475z" fill="url(#linear-gradient)"/></svg>